<?xml version="1.0" encoding="UTF-8"?>
<svg version="1.1" xmlns="http://www.w3.org/2000/svg" width="64" height="64">
<path d="M0 0 C2.625 1.6875 2.625 1.6875 4.125 4.25 C5.43563629 6.96885165 5.43563629 6.96885165 8.5 7.625 C12.75724245 9.07246243 14.2446991 10.9070221 16.625 14.6875 C17.2834502 17.7163709 17.09307074 19.51502055 16.625 22.6875 C15 24.6875 15 24.6875 12.625 25.6875 C9.51310534 25.93645157 7.43415474 26.09207737 4.625 24.6875 C4.356875 25.450625 4.08875 26.21375 3.8125 27 C2.67365495 29.57738618 1.81083329 30.95704864 -0.375 32.6875 C-1.035 32.6875 -1.695 32.6875 -2.375 32.6875 C-2.14103516 33.73550781 -2.14103516 33.73550781 -1.90234375 34.8046875 C-1.70769531 35.71476562 -1.51304688 36.62484375 -1.3125 37.5625 C-1.01666016 38.91988281 -1.01666016 38.91988281 -0.71484375 40.3046875 C-0.375 42.6875 -0.375 42.6875 -1.375 44.6875 C-4.345 44.6875 -7.315 44.6875 -10.375 44.6875 C-11.365 42.0475 -12.355 39.4075 -13.375 36.6875 C-15.36067708 36.98046875 -17.34635417 37.2734375 -19.33203125 37.56640625 C-21.375 37.6875 -21.375 37.6875 -24.375 36.6875 C-24.354375 37.821875 -24.33375 38.95625 -24.3125 40.125 C-24.375 43.6875 -24.375 43.6875 -25.375 44.6875 C-28.29828353 44.97039841 -30.53221691 45.16893907 -33.375 44.6875 C-36.79824025 41.26425975 -37.11939936 36.52069642 -37.84765625 31.89453125 C-38.21712978 29.49642481 -38.21712978 29.49642481 -40.375 27.6875 C-42.36672182 26.99649447 -44.36661804 26.32847297 -46.375 25.6875 C-48.03153686 24.03096314 -47.54606165 22.08099204 -47.5625 19.8125 C-47.57667969 18.92820312 -47.59085938 18.04390625 -47.60546875 17.1328125 C-47.375 14.6875 -47.375 14.6875 -45.375 11.6875 C-44.385 11.6875 -43.395 11.6875 -42.375 11.6875 C-41.715 10.3675 -41.055 9.0475 -40.375 7.6875 C-39.715 7.6875 -39.055 7.6875 -38.375 7.6875 C-38.2829126 7.06713867 -38.1908252 6.44677734 -38.09594727 5.80761719 C-37.375 3.6875 -37.375 3.6875 -35.82788086 2.59082031 C-35.17182861 2.31850586 -34.51577637 2.04619141 -33.83984375 1.765625 C-33.11216797 1.46269531 -32.38449219 1.15976563 -31.63476562 0.84765625 C-30.48524414 0.39712891 -30.48524414 0.39712891 -29.3125 -0.0625 C-28.57322266 -0.37832031 -27.83394531 -0.69414062 -27.07226562 -1.01953125 C-17.80157456 -4.76673971 -9.17698062 -3.5688258 0 0 Z M-17.375 -0.3125 C-18.365 0.3475 -19.355 1.0075 -20.375 1.6875 C-22.45294035 2.22944931 -24.53717707 2.74746588 -26.625 3.25 C-32.70540555 5.06118463 -35.72838805 7.34457222 -39.49609375 12.37109375 C-40.65173838 14.70681709 -40.65173838 14.70681709 -39.60546875 17.234375 C-39.19941406 18.04390625 -38.79335938 18.8534375 -38.375 19.6875 C-37.68820058 22.01498694 -37.01738957 24.34736656 -36.375 26.6875 C-35.75625 26.77 -35.1375 26.8525 -34.5 26.9375 C-32.375 27.6875 -32.375 27.6875 -31.125 29.75 C-30.8775 30.389375 -30.63 31.02875 -30.375 31.6875 C-29.446875 31.64625 -28.51875 31.605 -27.5625 31.5625 C-24.375 31.6875 -24.375 31.6875 -21.375 33.6875 C-18.79119823 33.93780977 -18.79119823 33.93780977 -16.375 33.6875 C-16.045 33.3575 -15.715 33.0275 -15.375 32.6875 C-13.828125 32.501875 -13.828125 32.501875 -12.25 32.3125 C-6.97986656 31.46247848 -2.79544581 30.46305726 0.625 26.1875 C1.96265163 23.62388448 1.96265163 23.62388448 0.625 20.6875 C-0.365 20.0275 -1.355 19.3675 -2.375 18.6875 C-3.05105634 11.58890845 -3.05105634 11.58890845 -0.875 8.6875 C-0.38 8.3575 0.115 8.0275 0.625 7.6875 C-0.30603324 5.35991689 -1.02882128 3.94392868 -3.0625 2.4375 C-5.51479119 1.51075252 -5.51479119 1.51075252 -8.8125 1.6875 C-12.375 1.6875 -12.375 1.6875 -15.125 0.5625 C-15.8675 0.27375 -16.61 -0.015 -17.375 -0.3125 Z M0.625 10.6875 C-0.05458603 13.08469432 -0.05458603 13.08469432 -0.375 15.6875 C0.285 16.3475 0.945 17.0075 1.625 17.6875 C2.73136395 15.29681266 2.73136395 15.29681266 3.625 12.6875 C3.295 12.0275 2.965 11.3675 2.625 10.6875 C1.965 10.6875 1.305 10.6875 0.625 10.6875 Z M6.625 10.6875 C6.625 11.3475 6.625 12.0075 6.625 12.6875 C7.285 12.6875 7.945 12.6875 8.625 12.6875 C8.625 14.0075 8.625 15.3275 8.625 16.6875 C7.635 16.6875 6.645 16.6875 5.625 16.6875 C5.295 18.0075 4.965 19.3275 4.625 20.6875 C7.4621515 21.88345537 7.4621515 21.88345537 10.625 22.6875 C11.615 22.0275 12.605 21.3675 13.625 20.6875 C13.12390042 16.30287866 11.64204885 13.8874003 8.625 10.6875 C7.965 10.6875 7.305 10.6875 6.625 10.6875 Z M-44.375 16.6875 C-44.045 18.9975 -43.715 21.3075 -43.375 23.6875 C-42.715 23.3575 -42.055 23.0275 -41.375 22.6875 C-42.035 20.7075 -42.695 18.7275 -43.375 16.6875 C-43.705 16.6875 -44.035 16.6875 -44.375 16.6875 Z M-33.375 33.6875 C-33.045 35.0075 -32.715 36.3275 -32.375 37.6875 C-31.385 37.6875 -30.395 37.6875 -29.375 37.6875 C-29.705 36.6975 -30.035 35.7075 -30.375 34.6875 C-31.365 34.3575 -32.355 34.0275 -33.375 33.6875 Z M-8.375 34.6875 C-8.705 35.6775 -9.035 36.6675 -9.375 37.6875 C-8.055 37.3575 -6.735 37.0275 -5.375 36.6875 C-5.705 36.0275 -6.035 35.3675 -6.375 34.6875 C-7.035 34.6875 -7.695 34.6875 -8.375 34.6875 Z " fill="#0053FF" transform="translate(47.375,11.3125)"/>
</svg>
