<?xml version="1.0" encoding="UTF-8"?>
<svg version="1.1" xmlns="http://www.w3.org/2000/svg" width="4999" height="3333">
<path d="M0 0 C1649.67 0 3299.34 0 4999 0 C4999 1099.89 4999 2199.78 4999 3333 C3349.33 3333 1699.66 3333 0 3333 C0 2233.11 0 1133.22 0 0 Z " fill="#D2DAE4" transform="translate(0,0)"/>
<path d="M0 0 C0.99 0 1.98 0 3 0 C3 2.64 3 5.28 3 8 C1.68 8 0.36 8 -1 8 C-1.04241723 5.66705225 -1.04092937 3.33297433 -1 1 C-0.67 0.67 -0.34 0.34 0 0 Z " fill="#93B7CF" transform="translate(3561,2896)"/>
<path d="M0 0 C1.32 0 2.64 0 4 0 C4 1.32 4 2.64 4 4 C0.91190305 5.76462683 -0.23312136 6 -4 6 C-4 5.34 -4 4.68 -4 4 C-2.68 4 -1.36 4 0 4 C0 2.68 0 1.36 0 0 Z " fill="#CBD4DF" transform="translate(2748,786)"/>
<path d="M0 0 C1.32 0 2.64 0 4 0 C4 1.32 4 2.64 4 4 C2.68 4.33 1.36 4.66 0 5 C0 3.35 0 1.7 0 0 Z " fill="#CBD5DF" transform="translate(2716,768)"/>
</svg>
